<svg width="100%" height="100%" viewBox="0 0 900 600" xmlns="http://www.w3.org/2000/svg">
  <!-- 滤镜定义 -->
  <defs>
    <!-- 边框滤镜 -->
    <filter id="sketch-border" x="-10%" y="-10%" width="120%" height="120%">
      <feTurbulence type="fractalNoise" baseFrequency="0.03" numOctaves="3" seed="42" result="noise"/>
      <feDisplacementMap in="SourceGraphic" in2="noise" scale="2" xChannelSelector="R" yChannelSelector="G"/>
    </filter>

    <!-- 文字滤镜 -->
    <filter id="sketch-text" x="-2%" y="-2%" width="104%" height="104%">
      <feTurbulence type="turbulence" baseFrequency="0.05" numOctaves="2" seed="15" result="noise"/>
      <feDisplacementMap in="SourceGraphic" in2="noise" scale="0.8" xChannelSelector="R" yChannelSelector="G"/>
    </filter>

    <!-- 发光效果 -->
    <filter id="glow" x="-20%" y="-20%" width="140%" height="140%">
      <feGaussianBlur stdDeviation="3" result="coloredBlur"/>
      <feMerge>
        <feMergeNode in="coloredBlur"/>
        <feMergeNode in="SourceGraphic"/>
      </feMerge>
    </filter>
  </defs>

  <!-- 背景 -->
  <rect width="100%" height="100%" fill="#ffffff"/>

  <!-- 庆祝背景元素 - 彩带 -->
  <g opacity="0.6">
    <path d="M100 50 Q150 30, 200 50 Q250 70, 300 50" stroke="#ff6b6b" stroke-width="8" fill="none" filter="url(#sketch-border)"/>
    <path d="M600 80 Q650 60, 700 80 Q750 100, 800 80" stroke="#4ecdc4" stroke-width="8" fill="none" filter="url(#sketch-border)"/>
    <path d="M50 150 Q100 130, 150 150 Q200 170, 250 150" stroke="#ffe66d" stroke-width="6" fill="none" filter="url(#sketch-border)"/>
    <path d="M650 200 Q700 180, 750 200 Q800 220, 850 200" stroke="#ff6b6b" stroke-width="6" fill="none" filter="url(#sketch-border)"/>
  </g>

  <!-- 主标题 -->
  <text x="450" y="60" font-family="Comic Sans MS, Virgil, cursive" font-size="32" text-anchor="middle" fill="#ff6b6b" filter="url(#glow)" font-weight="bold">🎉 喜提 OFFER 🎉</text>

  <!-- 中心人物 - 开发者 -->
  <g transform="translate(400, 120)">
    <!-- 头部 -->
    <circle cx="50" cy="40" r="25" fill="#ffd93d" stroke="#000000" stroke-width="2" filter="url(#sketch-border)"/>
    <!-- 笑脸 -->
    <circle cx="42" cy="35" r="3" fill="#000000"/>
    <circle cx="58" cy="35" r="3" fill="#000000"/>
    <path d="M35 48 Q50 58, 65 48" stroke="#000000" stroke-width="2" fill="none"/>

    <!-- 身体 -->
    <rect x="30" y="65" width="40" height="60" rx="10" ry="10" fill="#4ecdc4" stroke="#000000" stroke-width="2" filter="url(#sketch-border)"/>

    <!-- 手臂 - 举起庆祝 -->
    <ellipse cx="15" cy="85" rx="8" ry="25" fill="#ffd93d" stroke="#000000" stroke-width="2" filter="url(#sketch-border)" transform="rotate(-30 15 85)"/>
    <ellipse cx="85" cy="85" rx="8" ry="25" fill="#ffd93d" stroke="#000000" stroke-width="2" filter="url(#sketch-border)" transform="rotate(30 85 85)"/>

    <!-- 腿部 -->
    <ellipse cx="40" cy="140" rx="8" ry="20" fill="#ff6b6b" stroke="#000000" stroke-width="2" filter="url(#sketch-border)"/>
    <ellipse cx="60" cy="140" rx="8" ry="20" fill="#ff6b6b" stroke="#000000" stroke-width="2" filter="url(#sketch-border)"/>
  </g>

  <!-- Offer信封 -->
  <g transform="translate(320, 200)">
    <rect width="120" height="80" rx="5" ry="5" fill="#ffffff" stroke="#000000" stroke-width="2" filter="url(#sketch-border)"/>
    <polygon points="10,10 110,10 60,50" fill="#ff6b6b" stroke="#000000" stroke-width="2" filter="url(#sketch-border)"/>
    <text x="60" y="35" font-family="Comic Sans MS, Virgil, cursive" font-size="12" text-anchor="middle" fill="#000000" filter="url(#sketch-text)">OFFER</text>
    <text x="60" y="55" font-family="Comic Sans MS, Virgil, cursive" font-size="10" text-anchor="middle" fill="#000000" filter="url(#sketch-text)">恭喜录用</text>
  </g>

  <!-- 技能树 - 左侧 -->
  <g transform="translate(50, 320)">
    <rect width="200" height="220" rx="20" ry="20" fill="#e0f5e0" stroke="#000000" stroke-width="2" filter="url(#sketch-border)"/>
    <text x="100" y="25" font-family="Comic Sans MS, Virgil, cursive" font-size="16" text-anchor="middle" fill="#000000" filter="url(#sketch-text)">掌握的技能</text>
    <line x1="20" y1="35" x2="180" y2="35" stroke="#000000" stroke-width="1" filter="url(#sketch-border)"/>

    <!-- 技能列表 -->
    <g fill="#000000" filter="url(#sketch-text)">
      <text x="30" y="60" font-family="Comic Sans MS, Virgil, cursive" font-size="12">✅ Lodash 数组处理</text>
      <text x="30" y="80" font-family="Comic Sans MS, Virgil, cursive" font-size="12">✅ React Hooks</text>
      <text x="30" y="100" font-family="Comic Sans MS, Virgil, cursive" font-size="12">✅ JavaScript ES6+</text>
      <text x="30" y="120" font-family="Comic Sans MS, Virgil, cursive" font-size="12">✅ TypeScript</text>
      <text x="30" y="140" font-family="Comic Sans MS, Virgil, cursive" font-size="12">✅ 函数式编程</text>
      <text x="30" y="160" font-family="Comic Sans MS, Virgil, cursive" font-size="12">✅ 性能优化</text>
      <text x="30" y="180" font-family="Comic Sans MS, Virgil, cursive" font-size="12">✅ 算法与数据结构</text>
      <text x="30" y="200" font-family="Comic Sans MS, Virgil, cursive" font-size="12">✅ 工程化工具</text>
    </g>
  </g>

  <!-- 面试成果 - 右侧 -->
  <g transform="translate(650, 320)">
    <rect width="200" height="220" rx="20" ry="20" fill="#fff3cd" stroke="#000000" stroke-width="2" filter="url(#sketch-border)"/>
    <text x="100" y="25" font-family="Comic Sans MS, Virgil, cursive" font-size="16" text-anchor="middle" fill="#000000" filter="url(#sketch-text)">面试战绩</text>
    <line x1="20" y1="35" x2="180" y2="35" stroke="#000000" stroke-width="1" filter="url(#sketch-border)"/>

    <!-- 面试结果 -->
    <g fill="#000000" filter="url(#sketch-text)">
      <text x="30" y="60" font-family="Comic Sans MS, Virgil, cursive" font-size="12">🏆 大厂一面通过</text>
      <text x="30" y="80" font-family="Comic Sans MS, Virgil, cursive" font-size="12">🏆 算法题轻松解决</text>
      <text x="30" y="100" font-family="Comic Sans MS, Virgil, cursive" font-size="12">🏆 手写代码信手拈来</text>
      <text x="30" y="120" font-family="Comic Sans MS, Virgil, cursive" font-size="12">🏆 项目经验深度挖掘</text>
      <text x="30" y="140" font-family="Comic Sans MS, Virgil, cursive" font-size="12">🏆 技术原理对答如流</text>
      <text x="30" y="160" font-family="Comic Sans MS, Virgil, cursive" font-size="12">🏆 薪资谈判成功</text>
      <text x="30" y="180" font-family="Comic Sans MS, Virgil, cursive" font-size="12">🏆 心仪公司录用</text>
      <text x="30" y="200" font-family="Comic Sans MS, Virgil, cursive" font-size="12">🎯 职业生涯新起点</text>
    </g>
  </g>

  <!-- 连接箭头 -->
  <g stroke-linecap="round">
    <!-- 从技能到人物 -->
    <path d="M250 400 C320 400, 350 350, 380 280" stroke="#4ecdc4" stroke-width="3" fill="none" filter="url(#sketch-border)"/>
    <path d="M365 285 C370 282, 375 280, 380 280" stroke="#4ecdc4" stroke-width="3" fill="none"/>
    <path d="M365 275 C370 278, 375 280, 380 280" stroke="#4ecdc4" stroke-width="3" fill="none"/>

    <!-- 从人物到面试成果 -->
    <path d="M520 280 C580 350, 620 400, 650 400" stroke="#ff6b6b" stroke-width="3" fill="none" filter="url(#sketch-border)"/>
    <path d="M635 395 C640 398, 645 400, 650 400" stroke="#ff6b6b" stroke-width="3" fill="none"/>
    <path d="M635 405 C640 402, 645 400, 650 400" stroke="#ff6b6b" stroke-width="3" fill="none"/>
  </g>

  <!-- 装饰星星 -->
  <g fill="#ffe66d" stroke="#000000" stroke-width="1" filter="url(#sketch-border)">
    <polygon points="150,100 155,110 165,110 157,118 160,128 150,122 140,128 143,118 135,110 145,110" transform="rotate(15 150 115)"/>
    <polygon points="750,150 755,160 765,160 757,168 760,178 750,172 740,178 743,168 735,160 745,160" transform="rotate(-20 750 165)"/>
    <polygon points="100,250 105,260 115,260 107,268 110,278 100,272 90,278 93,268 85,260 95,260" transform="rotate(45 100 265)"/>
    <polygon points="800,300 805,310 815,310 807,318 810,328 800,322 790,328 793,318 785,310 795,310" transform="rotate(-15 800 315)"/>
  </g>

  <!-- 底部激励文字 -->
  <g transform="translate(200, 570)">
    <rect width="500" height="25" rx="12" ry="12" fill="#f7e8e8" stroke="#000000" stroke-width="2" filter="url(#sketch-border)"/>
    <text x="250" y="18" font-family="Comic Sans MS, Virgil, cursive" font-size="14" text-anchor="middle" fill="#000000" filter="url(#sketch-text)">刷题千遍，offer自然来！坚持学习，梦想成真！</text>
  </g>

  <!-- 项目标识 -->
  <g transform="translate(350, 300)">
    <rect width="200" height="40" rx="20" ry="20" fill="#ffffff" stroke="#4ecdc4" stroke-width="2" filter="url(#glow)"/>
    <text x="100" y="15" font-family="Comic Sans MS, Virgil, cursive" font-size="12" text-anchor="middle" fill="#4ecdc4" filter="url(#sketch-text)">coding-interview-questions</text>
    <text x="100" y="30" font-family="Comic Sans MS, Virgil, cursive" font-size="10" text-anchor="middle" fill="#4ecdc4" filter="url(#sketch-text)">助你成功的秘密武器</text>
  </g>

  <!-- 烟花效果 -->
  <g opacity="0.7">
    <circle cx="200" cy="150" r="3" fill="#ff6b6b" filter="url(#glow)"/>
    <circle cx="205" cy="145" r="2" fill="#4ecdc4" filter="url(#glow)"/>
    <circle cx="195" cy="155" r="2" fill="#ffe66d" filter="url(#glow)"/>

    <circle cx="700" cy="250" r="3" fill="#4ecdc4" filter="url(#glow)"/>
    <circle cx="705" cy="245" r="2" fill="#ff6b6b" filter="url(#glow)"/>
    <circle cx="695" cy="255" r="2" fill="#ffe66d" filter="url(#glow)"/>

    <circle cx="150" cy="350" r="2" fill="#ffe66d" filter="url(#glow)"/>
    <circle cx="750" cy="400" r="2" fill="#ff6b6b" filter="url(#glow)"/>
  </g>
</svg>